<svg width="1440" height="737" viewBox="0 0 1440 737" fill="none" xmlns="http://www.w3.org/2000/svg">
<g clip-path="url(#clip0_164_413)">
<path d="M-36 694.334C1190.18 470.626 1157.86 387.049 1330.24 605.752C1468.14 780.714 1498.13 856.818 1495.89 873" stroke="#05BD70" stroke-opacity="0.72" stroke-width="2"/>
<path d="M1511.32 556.398C201.133 140.986 195.105 231.687 124.323 -49.6807C67.6972 -274.775 72.6381 -357.645 82.1868 -370.943" stroke="#05BD70" stroke-opacity="0.72" stroke-width="2"/>
<path d="M-248.783 352.556C913.997 801.454 930.029 713.291 962.981 989.804C989.343 1211.02 975.219 1291.59 964.861 1304.22" stroke="#05BD70" stroke-opacity="0.72" stroke-width="2"/>
<path d="M1406 1008C1065 1020.5 374.7 938.9 341.5 512.5C308.3 86.1 301 -40.1667 301.5 -50L341.5 -152" stroke="#05BD70" stroke-opacity="0.72" stroke-width="3"/>
<path d="M2150.94 169.117C1846.8 323.824 1186.17 540.009 976.773 167.083C767.379 -205.842 707.669 -317.338 703.989 -326.47L697.398 -435.834" stroke="#05BD70" stroke-opacity="0.72" stroke-width="2"/>
<path d="M710.634 1508.92C976.163 90.1289 872.391 90.4959 1180.28 -5.42957C1426.59 -82.1699 1521.31 -83.1053 1537.88 -73.9805" stroke="#FEE600" stroke-opacity="0.42" stroke-width="2"/>
<path d="M1201.85 -221.712C210.29 1023.43 305.895 1067.49 -27.7207 1027.59C-294.614 995.677 -382.198 956.036 -392.629 940.205" stroke="#FEE600" stroke-opacity="0.42" stroke-width="2"/>
<path d="M252.909 1597.61C1219.67 525.765 1130.95 471.937 1443.66 550.738C1693.83 613.78 1775.12 662.402 1784.5 678.834" stroke="#FEE600" stroke-opacity="0.42" stroke-width="2"/>
<path d="M1646.7 79.1108C1519.08 453.102 1145.13 1165.94 670.205 1025.37C195.281 884.805 55.6923 840.442 45.2637 835.831L-48.502 750.353" stroke="#FEE600" stroke-opacity="0.42" stroke-width="3"/>
<path d="M1047.69 -1073.8C1089.14 -680.813 1049.54 123.186 559.534 195.317C69.524 267.448 -75.7795 285.884 -87.1801 286.085L-208.194 247.95" stroke="#FEE600" stroke-opacity="0.42" stroke-width="2"/>
<path d="M1612.8 979.076C1607.94 990.521 1601.74 1001.3 1594.2 1011.42C1573.19 1039.7 1543.85 1061.57 1506.18 1077.04C1468.51 1092.35 1424.78 1100 1375 1100C1324.84 1100 1280.92 1092.35 1243.25 1077.04C1205.58 1061.57 1176.24 1039.7 1155.23 1011.42C1148.5 1002.23 1142.86 992.48 1138.3 982.188L1291.16 921.933C1293.15 928.599 1296.02 934.89 1299.79 940.808C1307.74 953.117 1318.72 962.765 1332.73 969.752C1335.62 971.176 1338.35 972.451 1341 973.585V997H1357V1005H1365.25C1365.25 1005.3 1365.32 1005.61 1365.47 1005.91L1374.29 1023.28C1375.05 1024.77 1377.2 1024.72 1377.89 1023.19L1385.73 1005.82C1385.85 1005.55 1385.91 1005.27 1385.91 1005H1394V997H1410V973.578C1412.69 972.446 1415.42 971.173 1418.27 969.752C1432.28 962.765 1443.26 953.117 1451.21 940.808C1455.51 934.056 1458.65 926.817 1460.62 919.091L1612.8 979.076ZM1287.87 898.39C1287.87 901.299 1288 904.153 1288.27 906.949L1132.89 968.196C1126.96 950.412 1124 931.135 1124 910.367V523H1287.87V898.39ZM1626 910.367C1626 929.897 1623.33 948.108 1617.99 965L1462.97 903.893C1463.08 902.081 1463.13 900.247 1463.13 898.39V523H1626V910.367Z" fill="#05BD70" fill-opacity="0.16"/>
<rect x="1437" y="576" width="9" height="42" fill="#05BD70" fill-opacity="0.16"/>
<rect x="1301" y="576" width="9" height="42" fill="#05BD70" fill-opacity="0.16"/>
<rect x="1367" y="569" width="13" height="42" fill="#05BD70" fill-opacity="0.16"/>
<path d="M1372 406H1366V420.511C1337.94 423.54 1313.85 439.837 1300.15 463H1124V416C1124 405.507 1132.51 397 1143 397H1372V406ZM1607 397C1617.49 397 1626 405.507 1626 416V463H1450.85C1437.31 440.113 1413.63 423.93 1386 420.625V406H1380V397H1607Z" fill="#05BD70" fill-opacity="0.16"/>
<path d="M167.8 218.076C162.941 229.521 156.741 240.303 149.199 250.422C128.188 278.7 98.8475 300.575 61.1787 316.045C23.5098 331.349 -20.2165 339 -70 339C-120.162 339 -164.078 331.349 -201.747 316.045C-239.416 300.575 -268.755 278.7 -289.767 250.422C-296.499 241.225 -302.143 231.48 -306.698 221.188L-153.836 160.933C-151.854 167.599 -148.977 173.89 -145.206 179.808C-137.256 192.117 -126.277 201.765 -112.27 208.752C-109.377 210.176 -106.653 211.451 -104 212.585V236H-88V244H-79.7451C-79.7453 244.3 -79.6767 244.609 -79.5264 244.905L-70.7129 262.275C-69.9528 263.773 -67.7969 263.724 -67.1064 262.192L-59.2725 244.822C-59.15 244.551 -59.0948 244.272 -59.0947 244H-51V236H-35V212.578C-32.3086 211.446 -29.5791 210.173 -26.7305 208.752C-12.723 201.765 -1.74412 192.117 6.20605 179.808C10.5085 173.056 13.6471 165.817 15.6211 158.091L167.8 218.076ZM-157.131 137.39C-157.131 140.299 -156.996 143.153 -156.727 145.949L-312.108 207.196C-318.036 189.412 -321 170.135 -321 149.367V-238H-157.131V137.39ZM181 149.367C181 168.897 178.331 187.108 172.994 204L17.9668 142.893C18.0766 141.081 18.1309 139.247 18.1309 137.39V-238H181V149.367Z" fill="#05BD70" fill-opacity="0.16"/>
</g>
<defs>
<clipPath id="clip0_164_413">
<rect width="1440" height="737" fill="white"/>
</clipPath>
</defs>
</svg>
